<svg width="17" height="20" viewBox="0 0 17 20" fill="none" xmlns="http://www.w3.org/2000/svg">
<path d="M14.1832 10.5555C14.1738 8.95703 14.898 7.75234 16.3605 6.86406C15.5426 5.69219 14.3051 5.04766 12.6738 4.92344C11.1293 4.80156 9.43945 5.82344 8.8207 5.82344C8.1668 5.82344 6.67148 4.96563 5.49492 4.96563C3.0668 5.00313 0.486328 6.90156 0.486328 10.7641C0.486328 11.9055 0.694922 13.0844 1.11211 14.2984C1.66992 15.8969 3.68086 19.8133 5.77852 19.75C6.87539 19.7242 7.65117 18.9719 9.07852 18.9719C10.4637 18.9719 11.1809 19.75 12.4043 19.75C14.5207 19.7195 16.3395 16.1594 16.8691 14.5563C14.0309 13.218 14.1832 10.6375 14.1832 10.5555ZM11.7199 3.40703C12.9082 1.99609 12.8004 0.711719 12.7652 0.25C11.7152 0.310938 10.5012 0.964844 9.80976 1.76875C9.04805 2.63125 8.60039 3.69766 8.69648 4.9C9.83086 4.98672 10.8668 4.40313 11.7199 3.40703Z" fill="black"/>
</svg>
