<svg width="24" height="25" viewBox="0 0 24 25" fill="none" xmlns="http://www.w3.org/2000/svg">
<path d="M17.0922 8.98912L17.0924 8.98886C17.2208 8.8314 17.2821 8.62973 17.2631 8.42743C17.244 8.22513 17.1461 8.03846 16.9905 7.90777C16.8349 7.77708 16.6341 7.71286 16.4316 7.729C16.229 7.74514 16.041 7.84034 15.9081 7.99402L15.9078 7.99428L10.1788 14.8132L8.07419 12.4749C8.07412 12.4748 8.07406 12.4747 8.074 12.4746C8.00688 12.3965 7.92483 12.3326 7.83268 12.2867C7.74044 12.2406 7.63993 12.2135 7.53707 12.2069C7.4342 12.2003 7.33105 12.2143 7.23367 12.2481C7.1363 12.2819 7.04667 12.3349 6.97004 12.4038C6.89342 12.4728 6.83136 12.5564 6.78749 12.6497C6.74363 12.7429 6.71886 12.844 6.71463 12.947C6.7104 13.05 6.72681 13.1528 6.76288 13.2494C6.79891 13.3459 6.85386 13.4342 6.92449 13.5092C6.92455 13.5092 6.92461 13.5093 6.92467 13.5093L9.62429 16.5089C9.69679 16.5895 9.78542 16.654 9.88444 16.6981C9.98346 16.7423 10.0906 16.7651 10.1991 16.7651L10.2117 16.7651L10.2121 16.7651C10.3229 16.7634 10.4321 16.7378 10.5321 16.6902C10.6322 16.6426 10.7209 16.574 10.7922 16.4891L17.0922 8.98912ZM3.14621 3.38791C3.70424 2.82988 4.46085 2.516 5.25003 2.51514L18.75 2.51514C19.5392 2.516 20.2958 2.82988 20.8538 3.38791C21.4118 3.94594 21.7257 4.70255 21.7266 5.4917V18.9917C21.7257 19.7808 21.4118 20.5375 20.8538 21.0955C20.2958 21.6535 19.5392 21.9674 18.75 21.9683H5.25003C4.46085 21.9674 3.70424 21.6535 3.14621 21.0955C2.58818 20.5375 2.2743 19.7808 2.27344 18.9917L2.27344 5.49171C2.2743 4.70254 2.58818 3.94594 3.14621 3.38791Z" fill="black" stroke="#112211" stroke-width="0.046875"/>
</svg>
