<svg width="18" height="19" viewBox="0 0 18 19" fill="none" xmlns="http://www.w3.org/2000/svg">
<path d="M9 8.375C9.62132 8.375 10.125 7.87132 10.125 7.25C10.125 6.62868 9.62132 6.125 9 6.125C8.37868 6.125 7.875 6.62868 7.875 7.25C7.875 7.87132 8.37868 8.375 9 8.375Z" fill="#112211"/>
<path d="M9 1.625C5.89852 1.625 3.375 4.03848 3.375 7.00391C3.375 8.41613 4.01871 10.2942 5.2882 12.586C6.30773 14.4261 7.48723 16.09 8.1007 16.918C8.20437 17.0594 8.33991 17.1745 8.49633 17.2538C8.65276 17.3331 8.82567 17.3744 9.00105 17.3744C9.17644 17.3744 9.34935 17.3331 9.50578 17.2538C9.6622 17.1745 9.79774 17.0594 9.90141 16.918C10.5138 16.09 11.6944 14.4261 12.7139 12.586C13.9813 10.2949 14.625 8.41684 14.625 7.00391C14.625 4.03848 12.1015 1.625 9 1.625ZM9 9.5C8.55499 9.5 8.11998 9.36804 7.74997 9.12081C7.37996 8.87357 7.09157 8.52217 6.92127 8.11104C6.75097 7.6999 6.70642 7.2475 6.79323 6.81105C6.88005 6.37459 7.09434 5.97368 7.40901 5.65901C7.72368 5.34434 8.12459 5.13005 8.56105 5.04323C8.9975 4.95642 9.4499 5.00097 9.86104 5.17127C10.2722 5.34157 10.6236 5.62996 10.8708 5.99997C11.118 6.36998 11.25 6.80499 11.25 7.25C11.2493 7.84654 11.0121 8.41846 10.5903 8.84027C10.1685 9.26209 9.59654 9.49935 9 9.5Z" fill="#112211"/>
</svg>
