<svg width="248" height="81" viewBox="0 0 248 81" fill="none" xmlns="http://www.w3.org/2000/svg">
<path d="M16 16V65H18.0052V16H16ZM19.7227 16V65H20.2045V16H19.7227ZM20.8804 16V65H22.4047V16H20.8804ZM23.9535 16V65H24.604V16H23.9535ZM26.3225 16V65H26.8033V16H26.3225ZM27.0101 16V65H29.0026V16H27.0101ZM30.1983 16V65H31.2019V16H30.1983ZM33.1788 16V65H33.4012V16H33.1788ZM34.9314 16V65H35.6014V16H34.9314ZM37.3189 16V65H37.8007V16H37.3189ZM38.0075 16V65H40V16H38.0075Z" fill="#112211"/>
<path d="M40 16V65H42.0052V16H40ZM43.7227 16V65H44.2045V16H43.7227ZM44.8804 16V65H46.4047V16H44.8804ZM47.9535 16V65H48.604V16H47.9535ZM50.3225 16V65H50.8033V16H50.3225ZM51.0101 16V65H53.0026V16H51.0101ZM54.1983 16V65H55.2019V16H54.1983ZM57.1788 16V65H57.4012V16H57.1788ZM58.9314 16V65H59.6014V16H58.9314ZM61.3189 16V65H61.8007V16H61.3189ZM62.0075 16V65H64V16H62.0075Z" fill="#112211"/>
<path d="M64 16V65H66.0052V16H64ZM67.7227 16V65H68.2045V16H67.7227ZM68.8804 16V65H70.4047V16H68.8804ZM71.9535 16V65H72.604V16H71.9535ZM74.3225 16V65H74.8033V16H74.3225ZM75.0101 16V65H77.0026V16H75.0101ZM78.1983 16V65H79.2019V16H78.1983ZM81.1788 16V65H81.4012V16H81.1788ZM82.9314 16V65H83.6014V16H82.9314ZM85.3189 16V65H85.8007V16H85.3189ZM86.0075 16V65H88V16H86.0075Z" fill="#112211"/>
<path d="M88 16V65H90.0052V16H88ZM91.7227 16V65H92.2045V16H91.7227ZM92.8804 16V65H94.4047V16H92.8804ZM95.9535 16V65H96.604V16H95.9535ZM98.3225 16V65H98.8033V16H98.3225ZM99.0101 16V65H101.003V16H99.0101ZM102.198 16V65H103.202V16H102.198ZM105.179 16V65H105.401V16H105.179ZM106.931 16V65H107.601V16H106.931ZM109.319 16V65H109.801V16H109.319ZM110.007 16V65H112V16H110.007Z" fill="#112211"/>
<path d="M112 16V65H114.005V16H112ZM115.723 16V65H116.204V16H115.723ZM116.88 16V65H118.405V16H116.88ZM119.954 16V65H120.604V16H119.954ZM122.323 16V65H122.803V16H122.323ZM123.01 16V65H125.003V16H123.01ZM126.198 16V65H127.202V16H126.198ZM129.179 16V65H129.401V16H129.179ZM130.931 16V65H131.601V16H130.931ZM133.319 16V65H133.801V16H133.319ZM134.007 16V65H136V16H134.007Z" fill="#112211"/>
<path d="M136 16V65H138.005V16H136ZM139.723 16V65H140.204V16H139.723ZM140.88 16V65H142.405V16H140.88ZM143.954 16V65H144.604V16H143.954ZM146.323 16V65H146.803V16H146.323ZM147.01 16V65H149.003V16H147.01ZM150.198 16V65H151.202V16H150.198ZM153.179 16V65H153.401V16H153.179ZM154.931 16V65H155.601V16H154.931ZM157.319 16V65H157.801V16H157.319ZM158.007 16V65H160V16H158.007Z" fill="#112211"/>
<path d="M160 16V65H162.005V16H160ZM163.723 16V65H164.204V16H163.723ZM164.88 16V65H166.405V16H164.88ZM167.954 16V65H168.604V16H167.954ZM170.323 16V65H170.803V16H170.323ZM171.01 16V65H173.003V16H171.01ZM174.198 16V65H175.202V16H174.198ZM177.179 16V65H177.401V16H177.179ZM178.931 16V65H179.601V16H178.931ZM181.319 16V65H181.801V16H181.319ZM182.007 16V65H184V16H182.007Z" fill="#112211"/>
<path d="M184 16V65H186.005V16H184ZM187.723 16V65H188.204V16H187.723ZM188.88 16V65H190.405V16H188.88ZM191.954 16V65H192.604V16H191.954ZM194.323 16V65H194.803V16H194.323ZM195.01 16V65H197.003V16H195.01ZM198.198 16V65H199.202V16H198.198ZM201.179 16V65H201.401V16H201.179ZM202.931 16V65H203.601V16H202.931ZM205.319 16V65H205.801V16H205.319ZM206.007 16V65H208V16H206.007Z" fill="#112211"/>
<path d="M208 16V65H210.005V16H208ZM211.723 16V65H212.204V16H211.723ZM212.88 16V65H214.405V16H212.88ZM215.954 16V65H216.604V16H215.954ZM218.323 16V65H218.803V16H218.323ZM219.01 16V65H221.003V16H219.01ZM222.198 16V65H223.202V16H222.198ZM225.179 16V65H225.401V16H225.179ZM226.931 16V65H227.601V16H226.931ZM229.319 16V65H229.801V16H229.319ZM230.007 16V65H232V16H230.007Z" fill="#112211"/>
</svg>
