<svg width="16" height="18" viewBox="0 0 16 18" fill="none" xmlns="http://www.w3.org/2000/svg">
<path d="M11.1866 12.9151L11.2024 12.924L11.215 12.9109C11.4455 12.6698 11.7225 12.478 12.0292 12.347C12.336 12.216 12.6661 12.1485 12.9996 12.1486C13.5168 12.1486 14.0211 12.3105 14.4417 12.6116C14.8622 12.9127 15.1779 13.338 15.3445 13.8277C15.511 14.3174 15.5201 14.8469 15.3704 15.342C15.2206 15.8371 14.9197 16.2729 14.5097 16.5883C14.0997 16.9036 13.6012 17.0826 13.0843 17.1003C12.5673 17.1179 12.0578 16.9733 11.6273 16.6866C11.1968 16.4 10.8668 15.9857 10.6837 15.502C10.5005 15.0182 10.4735 14.4893 10.6062 13.9894L10.6109 13.9718L10.5951 13.9629L4.81383 10.7102L4.798 10.7013L4.78543 10.7144C4.44333 11.0711 4.00234 11.3173 3.51918 11.4213C3.03602 11.5253 2.5328 11.4823 2.07425 11.298C1.6157 11.1136 1.22279 10.7963 0.946072 10.3868C0.669354 9.97731 0.521484 9.49439 0.521484 9.00017C0.521484 8.50595 0.669354 8.02303 0.946072 7.61353C1.22279 7.20404 1.6157 6.88671 2.07425 6.70235C2.5328 6.518 3.03603 6.47506 3.51918 6.57906C4.00234 6.68305 4.44333 6.92923 4.78543 7.28592L4.798 7.29903L4.81383 7.29013L10.5951 4.03739L10.6109 4.02848L10.6062 4.01093C10.4516 3.43047 10.5139 2.81355 10.7815 2.27574C11.0491 1.73794 11.5036 1.31615 12.0599 1.08939C12.6161 0.862632 13.236 0.846469 13.8033 1.04393C14.3706 1.24138 14.8465 1.63891 15.1418 2.16204C15.437 2.68517 15.5314 3.29801 15.4073 3.88574C15.2831 4.47347 14.9489 4.99577 14.4673 5.35479C13.9857 5.71381 13.3897 5.88492 12.791 5.83606C12.1923 5.7872 11.6319 5.52172 11.2149 5.08937L11.2023 5.07633L11.1866 5.08521L5.4053 8.33795L5.38947 8.34685L5.39415 8.3644C5.50508 8.78099 5.50508 9.21935 5.39415 9.63593L5.38947 9.65349L5.4053 9.66239L11.1866 12.9151Z" fill="black" stroke="#112211" stroke-width="0.046875"/>
</svg>
