<svg width="24" height="20" viewBox="0 0 24 20" fill="none" xmlns="http://www.w3.org/2000/svg">
<path d="M8.74733 19.75H7.49952C7.37414 19.75 7.25077 19.7185 7.14069 19.6585C7.03062 19.5984 6.93735 19.5118 6.86941 19.4064C6.80147 19.301 6.76104 19.1803 6.7518 19.0552C6.74257 18.9302 6.76483 18.8048 6.81655 18.6906L9.83811 12.0227L5.30108 11.9219L3.64639 13.9267C3.33092 14.3233 3.07921 14.5 2.43702 14.5H1.59702C1.46402 14.5043 1.33195 14.4764 1.212 14.4188C1.09205 14.3612 0.987757 14.2755 0.907956 14.1691C0.796393 14.0186 0.686706 13.7636 0.793581 13.3998L1.72264 10.0717C1.72967 10.0469 1.73811 10.022 1.74749 9.99766C1.74795 9.99534 1.74795 9.99295 1.74749 9.99063C1.73781 9.96627 1.72951 9.94139 1.72264 9.91609L0.792643 6.56687C0.691862 6.21016 0.802018 5.96078 0.912643 5.81406C0.986929 5.71549 1.08331 5.63573 1.19403 5.58118C1.30475 5.52664 1.42672 5.49883 1.55014 5.5H2.43702C2.91655 5.5 3.38202 5.71516 3.65577 6.0625L5.27624 8.03359L9.83811 7.96609L6.81749 1.30984C6.7657 1.19568 6.74335 1.07036 6.75249 0.945327C6.76163 0.820298 6.80196 0.699555 6.8698 0.594135C6.93764 0.488715 7.03082 0.401982 7.14083 0.341864C7.25083 0.281747 7.37416 0.250163 7.49952 0.25H8.76092C8.9369 0.253536 9.10983 0.29667 9.26685 0.376197C9.42388 0.455724 9.56097 0.569602 9.66796 0.709375L15.5297 7.83438L18.2376 7.76312C18.4359 7.75234 18.9853 7.74859 19.1123 7.74859C21.7026 7.75 23.2495 8.59094 23.2495 10C23.2495 10.4434 23.0723 11.2656 21.8869 11.7887C21.187 12.0981 20.2533 12.2547 19.1114 12.2547C18.9858 12.2547 18.4378 12.2509 18.2367 12.2402L15.5292 12.168L9.65296 19.293C9.54588 19.4321 9.40891 19.5454 9.25216 19.6246C9.0954 19.7037 8.92288 19.7465 8.74733 19.75Z" fill="white"/>
</svg>
